<svg width="48" height="60" viewBox="0 0 48 60" fill="none" xmlns="http://www.w3.org/2000/svg">
<path fill-rule="evenodd" clip-rule="evenodd" d="M24.9732 0.585425L46.8744 8.0491C47.4094 8.23601 47.8477 8.84832 47.8348 9.4155V40.5077C47.8348 41.0813 47.4674 41.829 47.0227 42.177L24.8057 59.4891C24.5865 59.6632 24.29 59.7534 23.9936 59.7534C23.6971 59.7534 23.407 59.6632 23.1814 59.4891L0.964453 42.177C0.519727 41.8225 0.152344 41.0749 0.152344 40.5077V9.4155C0.152344 8.84832 0.590625 8.22956 1.12559 8.0491L23.0268 0.585425C23.291 0.49519 23.6455 0.450073 24 0.450073C24.3545 0.450073 24.709 0.49519 24.9732 0.585425ZM24 54.2362L43.207 39.2702V11.71L24 5.1616L4.79297 11.71V39.2702L24 54.2362Z" fill="#ED4C5C"/>
<path fill-rule="evenodd" clip-rule="evenodd" d="M16.9682 31.1813L11.973 36.1764C11.8771 36.2733 11.8233 36.4042 11.8233 36.5406C11.8233 36.677 11.8771 36.8078 11.973 36.9048L14.1645 39.0962C14.3643 39.296 14.693 39.296 14.8928 39.0962L19.8879 34.101C23.4779 36.3634 28.2732 35.9315 31.3992 32.8055C35.0279 29.1768 35.0279 23.2987 31.3992 19.67C27.7705 16.0413 21.8924 16.0413 18.2637 19.67C15.1377 22.796 14.7059 27.5977 16.9682 31.1813ZM28.4795 22.5897C26.4686 20.5723 23.2008 20.5723 21.1834 22.5897C19.166 24.6071 19.1725 27.8684 21.1834 29.8858C23.1943 31.9032 26.4621 31.9032 28.4795 29.8858C30.4969 27.8749 30.4969 24.6071 28.4795 22.5897Z" fill="#ED4C5C"/>
</svg>
